<?xml version="1.0" encoding="UTF-8" standalone="no"?>
<!-- Created with Inkscape (http://www.inkscape.org/) -->

<svg
   xmlns:dc="http://purl.org/dc/elements/1.1/"
   xmlns:cc="http://creativecommons.org/ns#"
   xmlns:rdf="http://www.w3.org/1999/02/22-rdf-syntax-ns#"
   xmlns:svg="http://www.w3.org/2000/svg"
   xmlns="http://www.w3.org/2000/svg"
   xmlns:xlink="http://www.w3.org/1999/xlink"
   version="1.1"
   width="960"
   height="560"
   viewBox="0 0 960 560"
   id="svg2"
   xml:space="preserve"><metadata
     id="metadata147"><rdf:RDF><cc:Work
         rdf:about=""><dc:format>image/svg+xml</dc:format><dc:type
           rdf:resource="http://purl.org/dc/dcmitype/StillImage" /><dc:title></dc:title></cc:Work></rdf:RDF></metadata><defs
     id="defs145" /><g
     id="Ebene_1"
     style="display:none" /><g
     id="Ebene_3" /><g
     transform="translate(-268.51485,-40.39604)"
     id="Ebene_6"><line
       stroke-miterlimit="10"
       x1="725.12799"
       y1="306.08401"
       x2="699.99902"
       y2="299.61899"
       id="line34"
       style="stroke:#ffffff;stroke-miterlimit:10" /><path
       d="M 783.883,302.205"
       id="path36"
       style="stroke:#ffffff;stroke-miterlimit:10" /><path
       d="M 607.264,175.685"
       id="path38"
       style="fill:none;stroke:#000000;stroke-miterlimit:10" /><g
       id="g40"><path
         d="m 738.565,309.572 c 11.492,-14.365 8.331,-11.78 10.343,-20.974 4.597,5.172 38.357,20.686 67.949,38.499 29.594,17.813 109.752,-27.868 120.957,-40.798 11.205,-12.929 -18.531,-40.367 -18.101,-44.246 0.431,-3.878 26.36,-0.144 26.289,-1.436 -1.723,-1.293 -28.442,-13.719 -37.063,-12.283 -8.619,1.437 0.145,17.31 -1.293,33.974 -1.657,19.202 -41.338,16.951 -42.127,15.371 28.443,-48.914 -28.695,-65.506 -23.812,-74.7 4.883,-9.194 18.963,-9.481 35.627,-8.045 -9.912,-9.481 -33.902,-9.481 -47.693,-4.022 -13.791,5.459 -14.653,9.193 0.287,31.316 14.94,22.123 -50.279,22.698 -50.279,22.698 0,0 -2.585,-2.012 -2.873,-8.62 -0.288,-6.607 -0.574,-22.41 0,-27.582 0.574,-5.172 -0.575,-8.619 -1.437,-9.193 -0.862,-0.575 10.2,-10.99 9.912,-17.311 -4.022,-4.023 -3.302,-6.421 -2.458,-8.153 14.383,-29.503 1.297,-58.632 3.32,-64.25 1.271,-3.529 -1.939,-7.973 -6.681,-14.653 0,0 -29.664,1.222 -44.892,13.001 -5.459,6.034 -8.188,5.386 -9.625,5.961 -1.438,0.575 -26.863,25.355 -26.289,46.617 0.455,1.138 3.19,6.044 1.961,11.207 -1.035,4.348 -5.379,6.544 -6.647,6.997 -4.022,1.436 8.421,19.146 11.582,21.157 -1.382,3.19 0.138,8.791 2.299,12.067 0.79,1.199 -4.022,29.88 -7.471,34.19 -3.447,4.31 -70.794,32.419 -59.76,4.597 6.608,-16.664 43.671,-41.66 23.559,-49.13 -20.112,-7.47 -48.268,-2.011 -54.876,12.929 9.194,-4.453 31.03,-12.929 36.775,-5.171 5.746,7.757 -27.582,23.559 -29.88,29.88 -7.185,19.755 -7.758,41.373 -2.299,49.13 5.459,7.758 35.052,15.802 50.854,15.228 15.803,-0.574 20.399,-0.862 30.455,-9.193 0,0 -18.531,11.061 -46.113,5.027 -50.706,-11.092 -78.866,-23.703 -71.971,-34.908 6.895,-11.205 12.498,-21.548 4.31,-24.996 -8.188,-3.448 -34.908,-12.929 -47.406,9.481 15.084,-4.31 26.72,-7.757 28.875,-2.155 2.154,5.603 -9.481,15.515 -9.912,32.322 -0.432,16.809 42.234,74.558 92.657,59.474 50.423,-15.084 92.947,-29.304 92.947,-29.304 z"
         id="path42"
         style="stroke:#000000;stroke-miterlimit:10" /><path
         d="M 723.323,519.156"
         id="path44"
         style="stroke:#000000;stroke-miterlimit:10" /></g><path
       d="m 746.035,219.07 c 1.436,-1.293 9.624,-17.383 17.095,-15.084 7.47,2.299 9.624,7.613 9.481,10.343 -0.144,2.729 -2.724,13.073 -13.285,12.498 -5.247,-0.144 -11.711,-2.442 -12.43,-4.31 -0.718,-1.868 -0.861,-3.447 -0.861,-3.447 z"
       id="path46"
       style="fill:#ffffff;stroke:#000000;stroke-miterlimit:10" /><path
       d="m 729.228,219.356 c -1.472,-1.839 -5.746,-7.038 -9.193,-7.038 -3.448,0 -8.619,0.366 -8.907,3.127 0.719,2.762 4.021,13.823 16.808,10.088 1.148,-2.01 2.097,-5.169 1.292,-6.177 z"
       id="path48"
       style="fill:#ffffff;stroke:#000000;stroke-miterlimit:10" /><path
       d="m 704.81,166.827 c 2.068,4.441 5.112,8.177 7.371,2.761 2.259,-5.416 2.352,-12.761 6.621,-21.154 4.27,-8.393 8.294,-14.805 10.562,-17.771 2.267,-2.966 -1.158,-7.983 -3.426,-5.017 -2.266,2.966 -26.365,29.938 -21.128,41.181 z"
       id="path50"
       style="fill:#ffffff;stroke:#000000;stroke-miterlimit:10" /></g><g
     transform="translate(-268.51485,-40.39604)"
     id="Ebene_5"><ellipse
       cx="739.57098"
       cy="373.78601"
       rx="127.997"
       ry="103.001"
       id="ellipse53"
       style="stroke:#ffffff;stroke-width:5;stroke-miterlimit:10" /><ellipse
       cx="739.57001"
       cy="373.78601"
       rx="89.209999"
       ry="102.139"
       id="ellipse55"
       style="stroke:#ffffff;stroke-width:5;stroke-miterlimit:10" /><ellipse
       cx="739.57098"
       cy="373.78601"
       rx="38.355999"
       ry="103.862"
       id="ellipse57"
       style="stroke:#ffffff;stroke-width:5;stroke-miterlimit:10" /><path
       d="m 873.888,341.752 c 0,0 -70.493,-13.909 -139.92,-10.631 -66.943,3.159 -123.544,19.25 -123.544,19.25"
       id="path59"
       style="fill:none;stroke:#ffffff;stroke-width:5;stroke-miterlimit:10" /><path
       d="m 871.296,403.998 c 0,0 -68.632,21.268 -138.018,25.332 -66.903,3.921 -124.885,-6.109 -124.885,-6.109"
       id="path61"
       style="fill:none;stroke:#ffffff;stroke-width:5;stroke-miterlimit:10" /></g><g
     id="Ebene_8"
     style="display:none"><path
       d="m 181.569,234.755 c -6.888,0.21 -35.125,77.37 -59.205,85.559 1.852,6.465 0.741,12.066 5.187,15.944 11.466,10.008 57.611,-80.512 60.733,-88.296 2.593,-6.464 7.362,-13.638 -6.715,-13.207 z"
       id="path107"
       style="stroke:#ffffff;stroke-miterlimit:10;display:inline" /><path
       d="m 85.653,320.134 c 25.407,-0.896 52.828,-6.716 47.008,9.401 -5.82,16.117 6.38,44.544 -11.528,64.69 -17.908,20.146 -66.707,26.303 -74.429,12.761 -6.09,-10.679 -2.238,-26.861 1.343,-37.159 3.338,-9.6 4.732,-21.922 6.719,-29.351 0.144,-0.541 0.292,-1.055 0.444,-1.54 2.239,-7.163 17.013,-18.33 30.443,-18.802 z"
       id="path109"
       style="stroke:#ffffff;stroke-miterlimit:10;display:inline" /><path
       d="m 52.75,369.167 c 9.677,3.976 35.959,1.886 40.583,0.75 9.5,-2.334 7.623,-27.979 18.845,-36.466 8.73,-6.603 19.244,-13.483 17.988,-13.951 -5.708,-2.126 -47.199,-3.845 -63.764,5.11 -16.565,8.954 -21.643,41.274 -13.652,44.557 z"
       id="path111"
       style="stroke:#ffffff;stroke-miterlimit:10;display:inline" /><g
       id="g113"
       style="display:inline"><g
         id="g115"><g
           id="g117"><defs
             id="defs119"><polygon
               points="58.483,334.851 92.127,334.365 93.707,363.712 60.063,364.197 "
               id="SVGID_1_" /></defs><clipPath
             id="SVGID_2_"><use
               id="use123"
               style="overflow:visible"
               x="0"
               y="0"
               width="960"
               height="560"
               xlink:href="#SVGID_1_" /></clipPath><g
             clip-path="url(#SVGID_2_)"
             id="g125"><g
               id="g127"><g
                 id="g129"><g
                   id="g131"><polyline
                     fill="#FFFFFF"
                     points="70.305,358.067 66.344,358.125 60.063,364.197 64.024,364.141 70.305,358.067         "
                     id="polyline133"
                     style="fill:#ffffff" /><polyline
                     fill="#FFFFFF"
                     points="75.092,357.999 71.131,358.056 64.85,364.129 68.812,364.071 75.092,357.999         "
                     id="polyline135"
                     style="fill:#ffffff" /><polyline
                     fill="#FFFFFF"
                     points="85.635,357.847 81.673,357.904 88.598,363.786 92.559,363.729 85.635,357.847         "
                     id="polyline137"
                     style="fill:#ffffff" /><polyline
                     fill="#FFFFFF"
                     points="80.848,357.916 76.886,357.973 83.811,363.855 87.772,363.798 80.848,357.916         "
                     id="polyline139"
                     style="fill:#ffffff" /><path
                     d="m 74.609,334.617 c -5.052,0.073 -8.875,5.248 -8.535,11.566 0.006,0.116 0.026,0.224 0.032,0.332 -2.722,-4.398 -2.766,-9.221 -2.766,-9.221 l -3.206,-0.044 c -0.047,5.391 4.639,17.466 12.95,19.753 0.879,0.329 1.801,0.495 2.755,0.481 0.76,-0.011 1.485,-0.147 2.184,-0.382 8.868,-1.763 14.615,-13.217 14.233,-20.315 l -6.531,0.094 c 0,0 0.028,4.518 -1.557,7.36 -0.949,-5.509 -4.966,-9.689 -9.559,-9.624"
                     id="path141"
                     style="fill:#ffffff" /></g></g></g></g></g></g></g></g></svg>